<svg xmlns="http://www.w3.org/2000/svg" viewBox="0 0 100 100">
  <g transform="translate(50, 48)" fill="none" stroke="white" stroke-linejoin="round">
    <path d="M -28,-16 L 28,-16 L 34,5 L 20,32 L 0,42 L -20,32 L -34,5 Z" stroke-width="5"/>
    <path d="M -28,-16 L -34,5 M 28,-16 L 34,5 M -20,32 L 0,42 L 20,32" stroke-width="2.5" stroke-linecap="round" opacity="0.85"/>
    <g fill="white" stroke="none">
      <circle cx="-18" cy="-10" r="1.8"/>
      <circle cx="-10" cy="-10" r="1.8"/>
      <circle cx="-2" cy="-10" r="1.8"/>
      <circle cx="-18" cy="-4" r="1.8"/>
      <circle cx="-10" cy="-4" r="1.8"/>
      <circle cx="-2" cy="-4" r="1.8"/>
      <circle cx="-18" cy="2" r="1.8"/>
      <circle cx="-10" cy="2" r="1.8"/>
      <circle cx="-2" cy="2" r="1.8"/>
      <circle cx="-14" cy="8" r="1.8"/>
      <circle cx="-6" cy="8" r="1.8"/>
    </g>
    <path d="M -10,14 Q 0,22 14,10" stroke-width="2.5" stroke-linecap="round"/>
  </g>
</svg>
